<?xml version="1.0" encoding="UTF-8"?>
<svg width="16px" height="16px" viewBox="0 0 16 16" version="1.1" xmlns="http://www.w3.org/2000/svg" xmlns:xlink="http://www.w3.org/1999/xlink">
    <title>icon/search</title>
    <g id="页面-1" stroke="none" stroke-width="1" fill="none" fill-rule="evenodd">
        <g id="1首页" transform="translate(-1346.000000, -24.000000)">
            <rect id="矩形" fill="#172129" x="0" y="0" width="1920" height="768"></rect>
            <g id="icon/search" opacity="0.847156" transform="translate(1346.000000, 24.000000)" fill-rule="nonzero">
                <rect id="矩形" fill="#000000" opacity="0" x="0" y="0" width="16" height="16"></rect>
                <path d="M14.992587,13.1871231 L12.2460652,10.9801075 C12.8065012,10.0610506 13.1352223,8.98518805 13.1352223,7.82997128 C13.1352223,4.47949091 10.4191438,1.76336444 7.06864747,1.76336444 C3.71815111,1.76336444 1.00207259,4.47949091 1.00207259,7.82997128 C1.00207259,11.1804517 3.71815109,13.8965781 7.06864745,13.8965781 C8.98905742,13.8965781 10.6978988,13.0017768 11.8095291,11.609169 L14.5143673,13.7824795 L14.992587,13.1871231 Z M7.06864745,13.1326161 C4.14478983,13.1326161 1.76603463,10.7538609 1.76603463,7.82998728 C1.76603463,4.90611367 4.14478983,2.52735847 7.06864745,2.52735847 C9.99250508,2.52735847 12.3712603,4.90611367 12.3712603,7.82998728 C12.3712603,10.7538609 9.99250508,13.1326161 7.06864745,13.1326161 Z" id="形状" fill="#FFFFFF"></path>
            </g>
        </g>
    </g>
</svg>