<?xml version="1.0" encoding="UTF-8"?>
<svg width="16px" height="16px" viewBox="0 0 16 16" version="1.1" xmlns="http://www.w3.org/2000/svg" xmlns:xlink="http://www.w3.org/1999/xlink">
    <title>icon/Sign in</title>
    <g id="页面-1" stroke="none" stroke-width="1" fill="none" fill-rule="evenodd">
        <g id="1首页" transform="translate(-1442.000000, -24.000000)">
            <rect id="矩形" fill="#172129" x="0" y="0" width="1920" height="768"></rect>
            <g id="icon/Sign-in" opacity="0.847156" transform="translate(1442.000000, 24.000000)" fill-rule="nonzero">
                <rect id="矩形" fill="#000000" opacity="0" x="0" y="0" width="16" height="16"></rect>
                <path d="M15.0133333,14.1221333 C14.9636732,13.9155624 14.9049497,13.711276 14.8373333,13.5098667 C14.8133333,13.4389333 14.784,13.3701333 14.7584,13.2997333 C14.7120912,13.170939 14.6622951,13.0434254 14.6090667,12.9173333 C14.5738667,12.8362667 14.5328,12.7568 14.4944,12.6768 C14.4410667,12.5658667 14.3872,12.4554667 14.328,12.3472 C14.2826667,12.264 14.2330667,12.1829333 14.1845333,12.1018667 C14.1466667,12.0384 14.1130667,11.9733333 14.0730667,11.9109333 C14.048,11.8725333 14.0197333,11.8362667 13.9946667,11.7984 C13.9712,11.7637333 13.952,11.7264 13.928,11.6922667 C13.9216,11.6826667 13.9114667,11.6784 13.9045333,11.6698667 C13.5089082,11.1005985 13.0332574,10.5913577 12.4922667,10.1578667 C12.2810667,9.98933334 12.0586667,9.83786667 11.832,9.69546667 C11.8245333,9.69013334 11.8208,9.68266667 11.8133333,9.67786667 C11.7557333,9.64213334 11.696,9.61066667 11.6373333,9.57653333 C11.5706667,9.5376 11.5045333,9.4976 11.4362667,9.46026667 C11.3296,9.40266667 11.2208,9.34933334 11.112,9.29653333 C11.0554667,9.26933333 10.9994667,9.24 10.9424,9.21386667 C10.7803531,9.14133316 10.6156123,9.07497431 10.4485333,9.01493333 C10.4373333,9.01066666 10.4272,9.00533333 10.416,9.00213333 C10.3669333,8.98453333 10.3157333,8.97226666 10.2666667,8.95626667 C10.2016,8.9344 10.1365333,8.912 10.0704,8.89226667 C11.3238892,8.16259998 12.0932729,6.81998994 12.0890667,5.3696 C12.0917884,4.28485401 11.6606801,3.24404913 10.8917333,2.47893333 C10.126685,1.70988593 9.08583614,1.27875943 8.00106667,1.28158363 L8,1.28158363 L7.99946667,1.28158363 C6.9146502,1.27852145 5.87371331,1.70968442 5.1088,2.47893333 C4.33965187,3.24391418 3.90850714,4.28480703 3.91146667,5.3696 C3.90791129,6.45451056 4.33914739,7.495624 5.1088,8.26026667 C5.35733333,8.50933334 5.63466667,8.71786667 5.93013333,8.89226667 C5.86346666,8.912 5.7984,8.93493334 5.73226667,8.95626667 C5.6832,8.9728 5.63306667,8.98506667 5.584,9.00213333 C5.5728,9.00586666 5.56266667,9.0112 5.552,9.01493333 C5.38506667,9.07466666 5.21973333,9.14133333 5.05706667,9.2144 C5.00106667,9.23946667 4.94666667,9.2688 4.8912,9.29493333 C4.78026667,9.34826666 4.66986667,9.4016 4.5616,9.4608 C4.49493333,9.49706667 4.4304,9.536 4.36533333,9.5744 C4.3056,9.60906667 4.24426666,9.64106667 4.1856,9.67786667 C4.1776,9.68266667 4.17386667,9.69066667 4.1664,9.696 C3.93973333,9.83893333 3.71786667,9.98986667 3.50666667,10.1578667 C2.96540634,10.5910668 2.4897166,11.1003494 2.0944,11.6698667 C2.08746667,11.6784 2.07733333,11.6826667 2.07093333,11.6922667 C2.04693333,11.7264 2.02773333,11.7637333 2.00426667,11.7984 C1.9792,11.8362667 1.9504,11.8725333 1.92586667,11.9109333 C1.88586667,11.9733333 1.85226667,12.0384 1.8144,12.1018667 C1.76586667,12.1829333 1.71626667,12.264 1.67093333,12.3472 C1.61173333,12.4554667 1.5584,12.5658667 1.50453333,12.6768 C1.46613333,12.7568 1.4256,12.8362667 1.38986667,12.9173333 C1.33493334,13.0426667 1.288,13.1712 1.24053333,13.2997333 C1.2144,13.3701333 1.18506666,13.4389333 1.1616,13.5098667 C1.0944,13.7109333 1.0352,13.9152 0.9856,14.1221333 C0.9376,14.3248 1.02613333,14.5248 1.18986667,14.6346667 C1.23713515,14.6676462 1.28985558,14.6920203 1.3456,14.7066667 C1.55621248,14.755041 1.77333799,14.6576939 1.87733333,14.4682667 C1.90033651,14.4303668 1.91792896,14.3894374 1.9296,14.3466667 C1.97386667,14.1616 2.02613333,13.9797333 2.0864,13.8010667 C2.096,13.7722667 2.10826667,13.7456 2.11786667,13.7173333 C2.17173334,13.5648 2.22933334,13.4133333 2.29493333,13.2650667 C2.30293333,13.2469333 2.31253333,13.2298667 2.32053333,13.2112 C2.39413333,13.0501333 2.47253333,12.8912 2.55946667,12.7370667 L2.56053333,12.7354667 C2.65551249,12.5670939 2.75819916,12.4031867 2.86826667,12.2442667 L2.8704,12.2384 C3.3526705,11.5408747 3.97270105,10.9495223 4.69226667,10.5008 C4.6944,10.4992 4.69706667,10.4997333 4.6992,10.4981333 C5.16235665,10.210167 5.66139689,9.98440642 6.18346667,9.82666667 C6.22666667,9.81386667 6.26933334,9.79946667 6.31306667,9.78773333 C6.40266667,9.76266666 6.49386667,9.7408 6.58453333,9.72 C6.82814203,9.6625137 7.07524596,9.62100308 7.32426667,9.59573333 C7.38506667,9.5888 7.44586667,9.58133333 7.50666667,9.57653333 C7.66933334,9.56426666 7.83306667,9.55573333 7.99893333,9.55573333 C8.16479998,9.55573333 8.328,9.56426666 8.4912,9.57653333 C8.552,9.58133333 8.61333333,9.5888 8.67413333,9.59573333 C8.92265555,9.62078344 9.16924168,9.66229686 9.41226667,9.72 C9.504,9.7408 9.5952,9.76266667 9.68586667,9.78773333 C9.728,9.79946666 9.7696,9.81333333 9.8112,9.82613333 C10.3322667,9.984 10.8325333,10.2074667 11.2986667,10.4981333 C11.3008,10.4997333 11.3034667,10.4992 11.3056,10.5008 C12.0255104,10.9490777 12.645624,11.5405093 13.1274667,12.2384 C13.1290667,12.2405333 13.1290667,12.2426667 13.1301333,12.2442667 C13.344,12.5530667 13.5269333,12.8778667 13.68,13.2154667 L13.7029333,13.2629333 C13.7701333,13.4138667 13.8288,13.5690667 13.8842667,13.7253333 C13.8928,13.7504 13.9034667,13.7738667 13.912,13.7989333 C13.9717333,13.9781333 14.0250667,14.1610667 14.0688,14.3461333 C14.1306559,14.606959 14.392241,14.7682559 14.6530667,14.7064 C14.9138923,14.6445441 15.0751892,14.382959 15.0133333,14.1221333 L15.0133333,14.1221333 Z M11.1184,5.36853333 C11.1163435,7.09001192 9.72147822,8.48511575 8,8.48746667 C6.27852178,8.48511575 4.88365652,7.09001192 4.8816,5.36853333 C4.88365715,3.64714138 6.27860805,2.25219048 8,2.25013333 C9.72139195,2.25219048 11.1163429,3.64714138 11.1184,5.36853333 Z" id="形状" fill="#FFFFFF"></path>
            </g>
        </g>
    </g>
</svg>