<?xml version="1.0" encoding="UTF-8"?>
<svg width="16px" height="16px" viewBox="0 0 16 16" version="1.1" xmlns="http://www.w3.org/2000/svg" xmlns:xlink="http://www.w3.org/1999/xlink">
    <title>icon/Upload</title>
    <g id="页面-1" stroke="none" stroke-width="1" fill="none" fill-rule="evenodd">
        <g id="1首页" transform="translate(-1394.000000, -24.000000)">
            <rect id="矩形" fill="#172129" x="0" y="0" width="1920" height="768"></rect>
            <g id="icon/Upload" opacity="0.847156" transform="translate(1394.000000, 24.000000)" fill-rule="nonzero">
                <rect id="矩形" fill="#000000" opacity="0" x="0" y="0" width="16" height="16"></rect>
                <path d="M12.00554,6.5 C12.00554,4.290861 10.214679,2.5 8.00554,2.5 C5.796401,2.5 4.00554,4.290861 4.00554,6.5 C2.34868575,6.5 1.00554,7.84314575 1.00554,9.5 C1.00554,11.1568542 2.34868575,12.5 4.00554,12.5 L4.00554,13.5000035 C1.97352645,13.5026755 0.26239228,11.9814006 0.0271647657,9.96304626 C-0.208062748,7.94469192 1.10737133,6.07068802 3.08554,5.606 C3.52096539,3.23095243 5.5909083,1.506 8.00554,1.506 C10.4201717,1.506 12.4901146,3.23095243 12.92554,5.606 C14.8963748,6.07783117 16.2034521,7.94838806 15.9688598,9.96129164 C15.7342676,11.9741952 14.0320589,13.4940373 12.00554,13.5000035 L12.00554,12.5 C13.6623942,12.5 15.0055399,11.1568542 15.0055399,9.5 C15.0055399,7.84314578 13.6623942,6.50000003 12.00554,6.5 Z M4.00554,12.5 L6.00554,12.5 L6.00554,13.5 L4.00554,13.5 L4.00554,12.5 Z M10.00554,12.5 L12.00554,12.5 L12.00554,13.5 L10.00554,13.5 L10.00554,12.5 Z" id="形状" fill="#FFFFFF"></path>
                <path d="M8.42254,9.206 L8.42254,14.41 C8.42039065,14.6857384 8.19826061,14.9092012 7.92254,14.913 C7.64681939,14.9092012 7.42468935,14.6857384 7.42254,14.41 L7.42254,9.206 L6.85854,9.77 C6.66216072,9.96075328 6.34928644,9.95942001 6.15454,9.767 C6.05984392,9.67454964 6.00620268,9.54796897 6.00563424,9.41562813 C6.00507477,9.28328729 6.05763527,9.15625406 6.15154,9.063 L7.57154,7.643 C7.66486616,7.54993276 7.79174972,7.49838631 7.92354,7.5 C8.05493014,7.49630979 8.18186211,7.5478079 8.27354,7.642 L9.69354,9.063 C9.88429328,9.25937928 9.88296001,9.57225356 9.69054,9.767 C9.59808964,9.86169608 9.47150897,9.91533732 9.33916813,9.91590127 C9.20682729,9.91646523 9.07979406,9.86390473 8.98654,9.77 L8.42254,9.206 L8.42254,9.206 Z" id="路径" fill="#FFFFFF"></path>
            </g>
        </g>
    </g>
</svg>