<?xml version="1.0" encoding="UTF-8"?>
<svg width="32px" height="32px" viewBox="0 0 32 32" version="1.1" xmlns="http://www.w3.org/2000/svg" xmlns:xlink="http://www.w3.org/1999/xlink">
    <title>icon/weibo</title>
    <defs>
        <rect id="path-1" x="0" y="0" width="1921" height="198"></rect>
        <filter x="-0.3%" y="-2.8%" width="100.7%" height="106.6%" filterUnits="objectBoundingBox" id="filter-2">
            <feOffset dx="0" dy="1" in="SourceAlpha" result="shadowOffsetOuter1"></feOffset>
            <feGaussianBlur stdDeviation="2" in="shadowOffsetOuter1" result="shadowBlurOuter1"></feGaussianBlur>
            <feColorMatrix values="0 0 0 0 0   0 0 0 0 0.0823529412   0 0 0 0 0.160784314  0 0 0 0.12 0" type="matrix" in="shadowBlurOuter1"></feColorMatrix>
        </filter>
    </defs>
    <g id="页面-1" stroke="none" stroke-width="1" fill="none" fill-rule="evenodd">
        <g id="1首页" transform="translate(-896.000000, -1951.000000)">
            <g id="Rectangle-2-Copy备份-2" transform="translate(0.000000, 1859.000000)">
                <use fill="black" fill-opacity="1" filter="url(#filter-2)" xlink:href="#path-1"></use>
                <use fill="#122627" fill-rule="evenodd" xlink:href="#path-1"></use>
            </g>
            <g id="icon/weibo" transform="translate(896.000000, 1951.000000)" fill-rule="nonzero">
                <rect id="矩形" fill="#000000" opacity="0" x="0" y="-3.55271368e-15" width="32" height="32"></rect>
                <path d="M14.536526,21.689 C11.5859901,21.8275 9.20074844,20.348 9.20074844,18.3805 C9.20074844,16.4105 11.5859901,14.8305 14.5370263,14.694 C17.489063,14.558 19.8798076,15.774 19.8798076,17.7405 C19.8798076,19.7085 17.489063,21.5555 14.5370263,21.689 M20.8197969,15.2955 C20.1184318,15.1595 20.4596094,14.7825 20.4596094,14.7825 C20.4596094,14.7825 21.1449661,13.6525 20.3235385,12.8315 C19.3055086,11.814 16.8317208,12.9615 16.8317208,12.9615 C15.8867289,13.254 16.1368591,12.827 16.2704286,12.101 C16.2704286,11.2455 15.977276,9.7965 13.4599656,10.6525 C10.946157,11.5125 8.78703307,14.5265 8.78703307,14.5265 C7.2852513,16.5285 7.48435495,18.076 7.48435495,18.076 C7.85905,21.493 11.4914409,22.431 14.3164115,22.653 C17.2889589,22.886 21.3000469,21.629 22.5171805,19.0465 C23.7333135,16.4595 21.5226628,15.436 20.8197969,15.2955 M14.9492409,18.402 C14.761143,18.542 14.5300227,18.523 14.4314714,18.3545 C14.3274172,18.1905 14.3664375,17.928 14.5565365,17.7895 C14.7761508,17.626 15.0047698,17.673 15.1038214,17.837 C15.2028729,18.005 15.1323362,18.257 14.9492409,18.402 M13.1993299,19.891 C12.6450414,19.956 12.1988091,19.637 12.1988091,19.1735 C12.1988091,18.7125 12.5955156,18.229 13.1503044,18.1715 C13.7861354,18.111 14.2008513,18.4775 14.2008513,18.941 C14.2008513,19.402 13.7511172,19.8285 13.1993299,19.891 M13.9482198,15.992 C10.980675,16.339 11.3233534,19.117 11.3233534,19.117 C11.3233534,19.117 11.2933378,19.997 12.1187674,20.4455 C13.8556716,21.3855 15.6431021,20.8165 16.5470727,19.6505 C17.450543,18.484 16.9202669,15.647 13.9482198,15.992 M22.264549,14.093 C22.5223292,14.0930384 22.7347582,13.8908409 22.7473003,13.6335 C23.1099891,10.3765 20.0774104,10.937 20.0774104,10.937 C19.9479295,10.9369944 19.8238164,10.9887098 19.7326833,11.0806405 C19.6415503,11.1725712 19.5909564,11.2970921 19.5921369,11.4265 C19.5921369,11.6935 19.8077701,11.9115 20.0774104,11.9115 C22.2560445,11.4305 21.774794,13.6075 21.774794,13.6075 C21.774794,13.877 21.9949086,14.0925 22.2650492,14.0925 M21.9113651,8.4075 C20.8628193,8.162 19.7842578,8.374 19.4816003,8.4315 C19.4585883,8.434 19.4365768,8.4555 19.4155659,8.46 C19.4050604,8.462 19.398557,8.473 19.398557,8.473 C19.1004018,8.557 18.8832888,8.833 18.8832888,9.158 C18.8832888,9.5465 19.1974523,9.8655 19.5901568,9.8655 C19.5901568,9.8655 19.9718555,9.8145 20.2304901,9.713 C20.4871237,9.61 22.6592544,9.636 23.7373156,11.447 C24.3261221,12.768 23.9964505,13.6525 23.9554292,13.795 C23.9554292,13.795 23.8153562,14.138 23.8153562,14.476 C23.8153562,14.866 24.1305203,15.1115 24.5207234,15.1115 C24.8458927,15.1115 25.1200354,15.0665 25.2000771,14.516 L25.2040792,14.516 C26.362182,10.658 23.7873417,8.8455 21.9113651,8.4075 M16.492044,2 C8.4883776,2 2,8.485 2,16.483 C2,24.484 8.4883776,30.968 16.492044,30.968 C24.4957104,30.968 30.9845883,24.484 30.9845883,16.483 C30.984088,8.485 24.4952102,2 16.4915437,2 M16.4695323,2.776 C24.020463,2.776 30.1631607,8.9145 30.1631607,16.461 C30.1631607,24.0095 24.0199628,30.1485 16.4695323,30.1485 C8.91760104,30.1485 2.77440312,24.0095 2.77440312,16.461 C2.77440312,8.9145 8.91760104,2.776 16.4695323,2.776" id="形状" fill="#FFFFFF" opacity="0.65"></path>
            </g>
        </g>
    </g>
</svg>