<?xml version="1.0" encoding="UTF-8"?>
<svg width="32px" height="32px" viewBox="0 0 32 32" version="1.1" xmlns="http://www.w3.org/2000/svg" xmlns:xlink="http://www.w3.org/1999/xlink">
    <title>icon/wetach</title>
    <defs>
        <rect id="path-1" x="0" y="0" width="1921" height="198"></rect>
        <filter x="-0.3%" y="-2.8%" width="100.7%" height="106.6%" filterUnits="objectBoundingBox" id="filter-2">
            <feOffset dx="0" dy="1" in="SourceAlpha" result="shadowOffsetOuter1"></feOffset>
            <feGaussianBlur stdDeviation="2" in="shadowOffsetOuter1" result="shadowBlurOuter1"></feGaussianBlur>
            <feColorMatrix values="0 0 0 0 0   0 0 0 0 0.0823529412   0 0 0 0 0.160784314  0 0 0 0.12 0" type="matrix" in="shadowBlurOuter1"></feColorMatrix>
        </filter>
    </defs>
    <g id="页面-1" stroke="none" stroke-width="1" fill="none" fill-rule="evenodd">
        <g id="1首页" transform="translate(-944.000000, -1951.000000)">
            <g id="Rectangle-2-Copy备份-2" transform="translate(0.000000, 1859.000000)">
                <use fill="black" fill-opacity="1" filter="url(#filter-2)" xlink:href="#path-1"></use>
                <use fill="#122627" fill-rule="evenodd" xlink:href="#path-1"></use>
            </g>
            <g id="icon/wetach" transform="translate(944.000000, 1951.000000)" fill-rule="nonzero">
                <rect id="矩形" fill="#000000" opacity="0" x="0" y="-3.55271368e-15" width="32" height="32"></rect>
                <path d="M16.0043281,29.994044 C8.28186119,29.994044 2,23.7142377 2,15.9968142 C2,8.27983828 8.28186122,2 16.0043281,2 C23.7254513,2 30.0086243,8.27980628 30.0086243,15.9968142 C30.0086243,23.7142697 23.7254513,29.994044 16.0043281,29.994044 Z M16.0043281,2.53873872 C8.57896654,2.53873872 2.53901931,8.57534991 2.53901931,15.9968142 C2.53901931,23.4182784 8.57896654,29.4548896 16.0043281,29.4548896 C23.4283459,29.4548896 29.4696049,23.4182784 29.4696049,15.9968142 C29.4696049,8.57534991 23.428314,2.53873872 16.0043281,2.53873872 Z M19.2098406,13.9385297 C19.4290062,13.9385297 19.64638,13.9552223 19.8593066,13.9794939 C19.2739905,11.2569238 16.3628958,9.23717316 13.0433853,9.23717316 C9.32915272,9.23717316 6.28623872,11.7678094 6.28623872,14.9819182 C6.28623872,16.8340705 7.29967953,18.3578373 8.99016597,19.5405874 L8.31484805,21.5714985 L10.676685,20.3867337 C11.5208404,20.5536926 12.1979181,20.7257679 13.0434173,20.7257679 C13.2545521,20.7257679 13.4648231,20.7159505 13.6724065,20.699066 C13.541451,20.2471803 13.4648231,19.7749885 13.4648231,19.2847928 C13.4647591,16.3336098 15.998953,13.9385297 19.2098406,13.9385297 Z M15.5779951,12.1082186 C16.0849235,12.1082186 16.4230463,12.4416885 16.4230463,12.9503677 C16.4230463,13.4568083 16.0849554,13.7958424 15.5779951,13.7958424 C15.0706188,13.7958424 14.5623466,13.4568083 14.5623466,12.9503677 C14.5623787,12.4416885 15.0706188,12.1082186 15.5779951,12.1082186 Z M10.8481461,13.7958424 C10.3412177,13.7958424 9.82891422,13.4568083 9.82891422,12.9503676 C9.82891422,12.4417205 10.3411858,12.1082186 10.8481461,12.1082186 C11.3541786,12.1082186 11.6896139,12.4416885 11.6896139,12.9503676 C11.6896139,13.4568083 11.3541786,13.7958424 10.8481461,13.7958424 Z M25.3763279,19.2033441 C25.3763279,16.5025832 22.6741604,14.3020592 19.6388292,14.3020592 C16.4230784,14.3020592 13.8897483,16.5025832 13.8897483,19.2033441 C13.8897483,21.9087738 16.4230463,24.103286 19.6388292,24.103286 C20.3114595,24.103286 20.9885692,23.9349841 21.664783,23.7653711 L23.5192437,24.7804908 L23.0096277,23.0926432 C24.3673664,22.0757007 25.3763279,20.7257999 25.3763279,19.2033441 Z M17.7740981,18.3578374 C17.437351,18.3578374 17.0979164,18.0230244 17.0979164,17.6826472 C17.0979164,17.3453718 17.437351,17.007361 17.7740981,17.007361 C18.2850579,17.007361 18.6195973,17.3454038 18.6195973,17.6826472 C18.6195973,18.0230563 18.2850579,18.3578374 17.7740981,18.3578374 Z M21.4905703,18.3578374 C21.1564788,18.3578374 20.8196997,18.0230244 20.8196997,17.6826472 C20.8196997,17.3453718 21.1564468,17.007361 21.4905703,17.007361 C21.9979466,17.007361 22.3373813,17.3454038 22.3373813,17.6826472 C22.3374133,18.0230563 21.9979466,18.3578374 21.4905703,18.3578374 Z" id="形状" fill="#FFFFFF" opacity="0.65"></path>
            </g>
        </g>
    </g>
</svg>